<svg xmlns="http://www.w3.org/2000/svg" viewBox="0 0 100 100">
  <defs>
    <linearGradient id="pyYellow" x1="0" y1="0" x2="0" y2="1">
      <stop offset="0%" style="stop-color:#ffd43b"/>
      <stop offset="100%" style="stop-color:#ffe873"/>
    </linearGradient>
    <linearGradient id="pyBlue" x1="0" y1="0" x2="0" y2="1">
      <stop offset="0%" style="stop-color:#5a9fd4"/>
      <stop offset="100%" style="stop-color:#306998"/>
    </linearGradient>
  </defs>
  
  <!-- Blue snake (top) -->
  <path fill="url(#pyBlue)" d="M 50,5 C 30,5 15,15 15,30 L 15,45 L 50,45 L 50,50 L 20,50 C 10,50 5,60 5,70 C 5,80 10,90 20,90 L 35,90 L 35,75 C 35,65 42,58 50,58 L 70,58 C 77,58 85,52 85,45 L 85,30 C 85,15 70,5 50,5 z M 38,15 C 41,15 44,18 44,21 C 44,24 41,27 38,27 C 35,27 32,24 32,21 C 32,18 35,15 38,15 z"/>
  
  <!-- Yellow snake (bottom) -->
  <path fill="url(#pyYellow)" d="M 50,95 C 70,95 85,85 85,70 L 85,55 L 50,55 L 50,50 L 80,50 C 90,50 95,40 95,30 C 95,20 90,10 80,10 L 65,10 L 65,25 C 65,35 58,42 50,42 L 30,42 C 23,42 15,48 15,55 L 15,70 C 15,85 30,95 50,95 z M 62,85 C 59,85 56,82 56,79 C 56,76 59,73 62,73 C 65,73 68,76 68,79 C 68,82 65,85 62,85 z"/>
</svg>
